<?xml version="1.0" encoding="UTF-8"?>
<svg xmlns="http://www.w3.org/2000/svg" xmlns:xlink="http://www.w3.org/1999/xlink" width="32px" height="32px" viewBox="0 0 32 32" version="1.1">
<g id="surface1">
<rect x="0" y="0" width="32" height="32" style="fill:rgb(25.882353%,25.882353%,25.882353%);fill-opacity:1;stroke:none;"/>
<path style=" stroke:none;fill-rule:nonzero;fill:rgb(100%,100%,99.607843%);fill-opacity:1;" d="M 6.972656 20.535156 L 21.222656 20.535156 L 21.222656 21.515625 L 20.859375 21.617188 C 20.378906 21.753906 19.96875 22.042969 19.675781 22.429688 C 19.390625 22.808594 19.222656 23.277344 19.222656 23.785156 C 19.222656 24.289062 19.390625 24.757812 19.675781 25.136719 C 19.96875 25.523438 20.378906 25.8125 20.859375 25.949219 L 21.222656 26.050781 L 21.222656 27.035156 L 6.972656 27.035156 C 6.078125 27.035156 5.265625 26.667969 4.675781 26.078125 C 4.085938 25.488281 3.722656 24.675781 3.722656 23.785156 C 3.722656 22.890625 4.085938 22.078125 4.675781 21.488281 C 5.265625 20.898438 6.078125 20.535156 6.972656 20.535156 Z M 19.132812 21.535156 L 6.972656 21.535156 C 6.351562 21.535156 5.789062 21.785156 5.382812 22.195312 C 4.972656 22.601562 4.722656 23.164062 4.722656 23.785156 C 4.722656 24.402344 4.972656 24.964844 5.382812 25.371094 C 5.789062 25.78125 6.351562 26.035156 6.972656 26.035156 L 19.132812 26.035156 C 19.042969 25.941406 18.957031 25.839844 18.878906 25.738281 C 18.464844 25.191406 18.222656 24.515625 18.222656 23.785156 C 18.222656 23.050781 18.464844 22.375 18.878906 21.828125 C 18.957031 21.726562 19.042969 21.628906 19.132812 21.535156 Z M 19.132812 21.535156 "/>
<path style=" stroke:none;fill-rule:nonzero;fill:rgb(100%,100%,99.607843%);fill-opacity:1;" d="M 27.582031 14.878906 L 21.128906 21.558594 L 20.410156 20.867188 L 26.863281 14.1875 Z M 27.582031 14.878906 "/>
<path style=" stroke:none;fill-rule:nonzero;fill:rgb(100%,100%,99.607843%);fill-opacity:1;" d="M 20.476562 26.394531 L 27.015625 18.800781 C 26.585938 18.441406 26.277344 17.882812 26.144531 17.238281 C 26.011719 16.601562 26.042969 15.875 26.292969 15.15625 C 26.351562 15 26.414062 14.84375 26.492188 14.691406 L 24.304688 14.65625 L 24.316406 13.660156 L 27.402344 13.710938 L 28.429688 13.726562 L 27.78125 14.523438 C 27.53125 14.828125 27.351562 15.15625 27.234375 15.488281 C 27.046875 16.027344 27.023438 16.566406 27.121094 17.035156 C 27.210938 17.472656 27.410156 17.835938 27.671875 18.054688 C 27.757812 18.121094 27.847656 18.171875 27.945312 18.207031 L 28.632812 18.449219 L 28.15625 19.003906 L 21.230469 27.046875 Z M 11.074219 18.21875 L 6.144531 21.679688 L 5.570312 20.863281 L 10.5 17.402344 Z M 11.074219 18.21875 "/>
<path style=" stroke:none;fill-rule:nonzero;fill:rgb(100%,100%,99.607843%);fill-opacity:1;" d="M 6.972656 11.78125 L 21.222656 11.78125 L 21.222656 12.761719 L 20.859375 12.867188 C 20.378906 13 19.96875 13.292969 19.675781 13.679688 C 19.390625 14.054688 19.222656 14.523438 19.222656 15.03125 C 19.222656 15.535156 19.390625 16.003906 19.675781 16.382812 C 19.96875 16.769531 20.378906 17.058594 20.859375 17.195312 L 21.222656 17.300781 L 21.222656 18.28125 L 6.972656 18.28125 C 6.078125 18.28125 5.265625 17.914062 4.675781 17.324219 C 4.085938 16.738281 3.722656 15.925781 3.722656 15.03125 C 3.722656 14.136719 4.085938 13.324219 4.675781 12.734375 C 5.265625 12.144531 6.078125 11.78125 6.972656 11.78125 Z M 19.132812 12.78125 L 6.972656 12.78125 C 6.351562 12.78125 5.789062 13.035156 5.382812 13.441406 C 4.972656 13.851562 4.722656 14.414062 4.722656 15.03125 C 4.722656 15.648438 4.972656 16.210938 5.382812 16.617188 C 5.789062 17.027344 6.351562 17.28125 6.972656 17.28125 L 19.132812 17.28125 C 19.042969 17.1875 18.957031 17.085938 18.878906 16.984375 C 18.464844 16.4375 18.222656 15.761719 18.222656 15.03125 C 18.222656 14.300781 18.464844 13.621094 18.878906 13.078125 C 18.957031 12.972656 19.042969 12.875 19.132812 12.78125 Z M 19.132812 12.78125 "/>
<path style=" stroke:none;fill-rule:nonzero;fill:rgb(100%,100%,99.607843%);fill-opacity:1;" d="M 27.582031 6.125 L 21.128906 12.804688 L 20.410156 12.113281 L 26.863281 5.433594 Z M 27.582031 6.125 "/>
<path style=" stroke:none;fill-rule:nonzero;fill:rgb(100%,100%,99.607843%);fill-opacity:1;" d="M 20.476562 17.640625 L 27.015625 10.046875 C 26.585938 9.6875 26.277344 9.132812 26.144531 8.484375 C 26.011719 7.851562 26.042969 7.121094 26.292969 6.40625 C 26.351562 6.25 26.414062 6.09375 26.492188 5.9375 L 16.320312 5.78125 L 6.144531 12.925781 L 5.570312 12.109375 L 15.878906 4.871094 L 16.171875 4.78125 L 27.402344 4.957031 L 28.429688 4.972656 L 27.78125 5.769531 C 27.53125 6.074219 27.351562 6.40625 27.234375 6.738281 C 27.046875 7.273438 27.023438 7.816406 27.121094 8.28125 C 27.210938 8.71875 27.410156 9.085938 27.671875 9.300781 C 27.757812 9.367188 27.847656 9.421875 27.945312 9.453125 L 28.632812 9.695312 L 28.15625 10.25 L 21.230469 18.292969 Z M 20.476562 17.640625 "/>
</g>
</svg>
